/* XPM */
static char *_99c588d95824302b4f660abe995eb596t2wWIMtXoNkGeJp[] = {
/* columns rows colors chars-per-pixel */
"42 42 2 1 ",
"  c None",
". c black",
/* pixels */
"                                          ",
"                                          ",
"              ..............              ",
"           ....................           ",
"         ........................         ",
"        ..........................        ",
"       ............................       ",
"      ..............................      ",
"     ................................     ",
"    ..................................    ",
"    ..................................    ",
"   ....................................   ",
"   ....................................   ",
"   ....................................   ",
"  ......................................  ",
"  ......................................  ",
"  ......................................  ",
"  ......................................  ",
"  ......................................  ",
"  ......................................  ",
"  ......................................  ",
"  ......................................  ",
"  ......................................  ",
"  ......................................  ",
"  ......................................  ",
"  ......................................  ",
"  ......................................  ",
"  ......................................  ",
"   ....................................   ",
"   ....................................   ",
"   ....................................   ",
"    ..................................    ",
"    ..................................    ",
"     ................................     ",
"      ..............................      ",
"       ............................       ",
"        ..........................        ",
"         ........................         ",
"           ....................           ",
"              ..............              ",
"                                          ",
"                                          "
};
