/* XPM */
static char *_49c089ff8924aadb848bf754a6b98a8j5X5IEbcDgwDuBJy[] = {
/* columns rows colors chars-per-pixel */
"42 42 3 1 ",
"  c None",
". c black",
"X c #0CDE09",
/* pixels */
"               XXXXXXXXXXXX               ",
"             XXX..........XXX             ",
"          XXXX..............XXXX          ",
"        XXX....................XXX        ",
"       XX........................XX       ",
"      XX..........................XX      ",
"     XX............................XX     ",
"    XX..............................XX    ",
"   XX................................XX   ",
"   X..................................X   ",
"  XX..................................XX  ",
"  X....................................X  ",
" XX....................................X  ",
" X.....................................XX ",
"XX......................................X ",
"X.......................................XX",
"X........................................X",
"X........................................X",
"X........................................X",
"X........................................X",
"X........................................X",
"X........................................X",
"X........................................X",
"X........................................X",
"X........................................X",
"X........................................X",
"XX......................................XX",
" X......................................X ",
" XX....................................XX ",
"  X....................................X  ",
"  X....................................X  ",
"  XX..................................XX  ",
"   XX.................................X   ",
"    X................................XX   ",
"    XX..............................XX    ",
"     XX............................XX     ",
"      XX..........................XX      ",
"       XX........................XX       ",
"        XXX....................XXX        ",
"          XXXX..............XXXX          ",
"             XXX..........XXX             ",
"               XXXXXXXXXXXX               "
};
