/* XPM */
static char *_6a9366f681946e3821c43728534517aNgNxK4MQLN3sMEss[] = {
/* columns rows colors chars-per-pixel */
"36 36 3 1 ",
"  c None",
". c #141314",
"X c #4DDE43",
/* pixels */
"             XXXXXXXXXX             ",
"           XXXXXXXXXXXXXX           ",
"         XXXXX........XXXXX         ",
"       XXXXX............XXXXX       ",
"      XXXX................XXXX      ",
"     XXX....................XXX     ",
"    XXX......................XXX    ",
"   XXX........................XXX   ",
"   XX..........................XX   ",
"  XXX..........................XXX  ",
"  XX............................XX  ",
" XXX............................XXX ",
" XX..............................XX ",
"XXX..............................XXX",
"XX................................XX",
"XX................................XX",
"XX................................XX",
"XX................................XX",
"XX................................XX",
"XX................................XX",
"XX................................XX",
"XX................................XX",
"XXX..............................XXX",
" XX..............................XX ",
" XXX............................XXX ",
"  XX............................XX  ",
"  XXX..........................XXX  ",
"   XX..........................XX   ",
"   XXX........................XXX   ",
"    XXX......................XXX    ",
"     XXX....................XXX     ",
"      XXXX................XXXX      ",
"       XXXXX............XXXXX       ",
"         XXXXX........XXXXX         ",
"           XXXXXXXXXXXXXX           ",
"             XXXXXXXXXX             "
};
